<svg width="24" height="24" viewBox="0 0 24 24" fill="none" xmlns="http://www.w3.org/2000/svg">
<path id="Vector" d="M22.5895 3.53499L12.7655 0.39899C12.4481 0.297342 12.1069 0.297342 11.7895 0.39899L1.96546 3.53499C1.64169 3.63681 1.35869 3.83894 1.15736 4.11218C0.956026 4.38541 0.846797 4.71559 0.845459 5.05499V17.631C0.845459 18.287 1.24546 18.879 1.85346 19.119L11.6775 23.055C12.0615 23.215 12.4775 23.215 12.8775 23.055L22.7015 19.119C22.9962 18.9979 23.248 18.7916 23.4248 18.5265C23.6015 18.2614 23.6951 17.9496 23.6935 17.631V5.05499C23.6932 4.71759 23.5863 4.3889 23.388 4.1159C23.1897 3.84291 22.9102 3.63959 22.5895 3.53499V3.53499ZM12.2695 1.91899L21.9495 5.00699L17.6295 6.44699L8.09346 3.26299L12.3015 1.91899H12.2695ZM11.5335 21.279L2.44546 17.631V6.62299L11.5335 9.66299V21.279V21.279ZM12.3335 8.22299L2.66946 4.99099L6.79746 3.67899L16.3815 6.87899L12.3335 8.22299ZM22.0935 17.647L13.1335 21.231V9.64699L22.0935 6.65499V17.647V17.647Z" fill="#727272"/>
</svg>
