<svg width="24" height="24" viewBox="0 0 24 24" fill="none" xmlns="http://www.w3.org/2000/svg">
<g id="error">
<path id="Vector" d="M16.728 4.72815L12 9.45375L7.27198 4.72575C6.93431 4.38839 6.47645 4.19899 5.99914 4.19922C5.52182 4.19944 5.06414 4.38927 4.72678 4.72695C4.38943 5.06462 4.20003 5.52248 4.20026 5.9998C4.20048 6.47711 4.39031 6.93479 4.72798 7.27215L9.45598 12.0001L4.72798 16.7281C4.56094 16.8952 4.42844 17.0935 4.33804 17.3117C4.24763 17.53 4.20111 17.7639 4.20111 18.0001C4.20111 18.2364 4.24763 18.4703 4.33804 18.6885C4.42844 18.9068 4.56094 19.1051 4.72798 19.2721C4.89503 19.4392 5.09333 19.5717 5.31158 19.6621C5.52983 19.7525 5.76375 19.799 5.99998 19.799C6.23622 19.799 6.47014 19.7525 6.68839 19.6621C6.90664 19.5717 7.10494 19.4392 7.27198 19.2721L12 14.5441L16.728 19.2721C16.8949 19.4395 17.0931 19.5722 17.3114 19.6628C17.5297 19.7534 17.7637 19.8001 18 19.8001C18.2363 19.8001 18.4703 19.7534 18.6886 19.6628C18.9069 19.5722 19.1051 19.4395 19.272 19.2721C19.439 19.1051 19.5716 18.9068 19.662 18.6886C19.7524 18.4703 19.7989 18.2364 19.7989 18.0001C19.7989 17.7639 19.7524 17.53 19.662 17.3117C19.5716 17.0935 19.439 16.8952 19.272 16.7281L14.5464 12.0001L19.2744 7.27215C19.6117 6.93463 19.8012 6.47693 19.8011 5.99972C19.801 5.52252 19.6113 5.0649 19.2738 4.72755C18.9363 4.39019 18.4786 4.20073 18.0014 4.20084C17.5242 4.20096 17.0665 4.39063 16.7292 4.72815H16.728Z" fill="#DE3618"/>
</g>
</svg>
