<svg width="43" height="43" viewBox="0 0 43 43" fill="none" xmlns="http://www.w3.org/2000/svg">
<g id="Cart1">
<path id="Vector" d="M4.3335 6.6665H9.66683L13.6668 29.3332H35.0002M13.6668 22.2221H34.4535C34.6077 22.2222 34.7571 22.1688 34.8764 22.0711C34.9957 21.9734 35.0774 21.8374 35.1077 21.6862L37.5077 9.68623C37.527 9.58946 37.5247 9.48961 37.5008 9.39387C37.4769 9.29813 37.432 9.20889 37.3694 9.13259C37.3068 9.05629 37.2281 8.99484 37.1389 8.95267C37.0496 8.9105 36.9522 8.88866 36.8535 8.88873H11.0002M16.3335 34.6665C16.3335 35.4029 15.7365 35.9998 15.0002 35.9998C14.2638 35.9998 13.6668 35.4029 13.6668 34.6665C13.6668 33.9301 14.2638 33.3332 15.0002 33.3332C15.7365 33.3332 16.3335 33.9301 16.3335 34.6665ZM35.0002 34.6665C35.0002 35.4029 34.4032 35.9998 33.6668 35.9998C32.9305 35.9998 32.3335 35.4029 32.3335 34.6665C32.3335 33.9301 32.9305 33.3332 33.6668 33.3332C34.4032 33.3332 35.0002 33.9301 35.0002 34.6665Z" stroke="black" stroke-width="2" stroke-linecap="round" stroke-linejoin="round"/>
</g>
</svg>
