<svg width="18" height="19" viewBox="0 0 18 19" fill="none" xmlns="http://www.w3.org/2000/svg">
<g id="X">
<path id="Vector 139 (Stroke)" fill-rule="evenodd" clip-rule="evenodd" d="M3.17007 3.2248C3.39682 2.99717 3.76447 2.99717 3.99122 3.2248L9 8.25292L14.0088 3.2248C14.2355 2.99717 14.6032 2.99717 14.8299 3.2248C15.0567 3.45243 15.0567 3.8215 14.8299 4.04913L9.82116 9.07724L14.8299 14.1054C15.0567 14.333 15.0567 14.7021 14.8299 14.9297C14.6032 15.1573 14.2355 15.1573 14.0088 14.9297L9 9.90157L3.99122 14.9297C3.76447 15.1573 3.39682 15.1573 3.17007 14.9297C2.94331 14.7021 2.94331 14.333 3.17007 14.1054L8.17884 9.07724L3.17007 4.04913C2.94331 3.8215 2.94331 3.45243 3.17007 3.2248Z" fill="#46A358"/>
</g>
</svg>
