<svg width="32" height="33" viewBox="0 0 32 33" fill="none" xmlns="http://www.w3.org/2000/svg">
<g id="filter and sort">
<path id="Union" fill-rule="evenodd" clip-rule="evenodd" d="M13.4632 10.4314H13.4632C13.5517 10.6818 13.5999 10.9512 13.5999 11.2318C13.5999 12.5573 12.5253 13.6318 11.1999 13.6318C9.87437 13.6318 8.79985 12.5573 8.79985 11.2318C8.79985 10.9512 8.84803 10.6818 8.93656 10.4314H8.93637C9.26584 9.49929 10.1548 8.83145 11.1998 8.83145C12.2448 8.83145 13.1338 9.49929 13.4632 10.4314ZM15.1198 10.4314C14.7492 8.60565 13.135 7.23145 11.1998 7.23145C9.26464 7.23145 7.65044 8.60565 7.27982 10.4314H4.7998V12.0314H7.27982C7.65044 13.8572 9.26464 15.2314 11.1998 15.2314C13.135 15.2314 14.7492 13.8572 15.1198 12.0314H27.1998V10.4314H15.1198ZM18.5366 23.233C18.866 24.1652 19.755 24.833 20.8 24.833C21.845 24.833 22.734 24.1652 23.0634 23.233H23.0633C23.1518 22.9827 23.2 22.7133 23.2 22.4326C23.2 21.1071 22.1254 20.0326 20.8 20.0326C19.4745 20.0326 18.4 21.1071 18.4 22.4326C18.4 22.7133 18.4481 22.9827 18.5367 23.233H18.5366ZM16.88 21.633C17.2506 19.8072 18.8648 18.433 20.8 18.433C22.7352 18.433 24.3494 19.8072 24.72 21.633H27.2V23.233H24.72C24.3494 25.0588 22.7352 26.433 20.8 26.433C18.8648 26.433 17.2506 25.0588 16.88 23.233H4.80001V21.633H16.88Z" fill="black"/>
</g>
</svg>
