<svg width="18" height="16" viewBox="0 0 18 16" fill="none" xmlns="http://www.w3.org/2000/svg">
<g id="Hide">
<path id="Stroke 1" d="M4.35008 12.6658C2.49175 11.4445 1.29175 9.60405 1.29175 7.98951C1.29175 5.24562 4.74175 1.88269 9.00008 1.88269C10.7417 1.88269 12.3584 2.44318 13.6584 3.31319" stroke="#727272" stroke-width="1.5" stroke-linecap="round" stroke-linejoin="round"/>
<path id="Stroke 3" d="M15.5414 5.0368C16.2839 5.98211 16.7164 7.0278 16.7164 7.98983C16.7164 10.7337 13.2581 14.0967 8.99977 14.0967C8.24144 14.0967 7.50061 13.9879 6.80811 13.7955" stroke="#727272" stroke-width="1.5" stroke-linecap="round" stroke-linejoin="round"/>
<path id="Stroke 5" d="M7.13828 9.85268C6.64245 9.35995 6.36495 8.6882 6.36745 7.988C6.36412 6.52822 7.54078 5.34199 8.99578 5.33949C9.69578 5.33781 10.3674 5.61638 10.8624 6.11329" stroke="#727272" stroke-width="1.5" stroke-linecap="round" stroke-linejoin="round"/>
<path id="Stroke 7" d="M11.5912 8.4574C11.3962 9.53822 10.5537 10.3856 9.47705 10.5839" stroke="#727272" stroke-width="1.5" stroke-linecap="round" stroke-linejoin="round"/>
<path id="Stroke 9" d="M15.5764 1.38922L2.4314 14.585" stroke="#727272" stroke-width="1.5" stroke-linecap="round" stroke-linejoin="round"/>
</g>
</svg>
