<svg width="15" height="17" viewBox="0 0 15 17" fill="none" xmlns="http://www.w3.org/2000/svg">
<g id="Location">
<path id="Fill 1" fill-rule="evenodd" clip-rule="evenodd" d="M7.20875 6.0835C6.40458 6.0835 5.75042 6.73766 5.75042 7.54266C5.75042 8.34683 6.40458 9.00016 7.20875 9.00016C8.01292 9.00016 8.66708 8.34683 8.66708 7.54266C8.66708 6.73766 8.01292 6.0835 7.20875 6.0835M7.20875 10.2502C5.71542 10.2502 4.50042 9.036 4.50042 7.54266C4.50042 6.0485 5.71542 4.8335 7.20875 4.8335C8.70208 4.8335 9.91708 6.0485 9.91708 7.54266C9.91708 9.036 8.70208 10.2502 7.20875 10.2502" fill="#727272"/>
<g id="Group 5">
<mask id="mask0_162_275" style="mask-type:luminance" maskUnits="userSpaceOnUse" x="0" y="0" width="15" height="17">
<path id="Clip 4" fill-rule="evenodd" clip-rule="evenodd" d="M0.333332 0.666748H14.0829V16.9167H0.333332V0.666748Z" fill="white"/>
</mask>
<g mask="url(#mask0_162_275)">
<path id="Fill 3" fill-rule="evenodd" clip-rule="evenodd" d="M7.20792 1.91675C4.10625 1.91675 1.58292 4.46425 1.58292 7.59425C1.58292 11.5767 6.26958 15.4567 7.20792 15.6634C8.14625 15.4559 12.8329 11.5759 12.8329 7.59425C12.8329 4.46425 10.3096 1.91675 7.20792 1.91675V1.91675ZM7.20792 16.9167C5.71292 16.9167 0.332916 12.2901 0.332916 7.59425C0.332916 3.77425 3.41708 0.666748 7.20792 0.666748C10.9987 0.666748 14.0829 3.77425 14.0829 7.59425C14.0829 12.2901 8.70292 16.9167 7.20792 16.9167V16.9167Z" fill="#727272"/>
</g>
</g>
</g>
</svg>
