<svg width="18" height="17" viewBox="0 0 18 17" fill="none" xmlns="http://www.w3.org/2000/svg">
<g id="shopping 1" clip-path="url(#clip0_30_550)">
<path id="Vector" d="M12.4274 14.3318H7.33966C5.16764 14.3318 3.40055 12.5647 3.40055 10.3927V6.35508C3.40055 4.33596 2.39418 2.46701 0.708533 1.35559C0.405813 1.15601 0.322238 0.74884 0.52182 0.44612C0.721401 0.143366 1.12854 0.0597587 1.43133 0.259406C2.39359 0.893865 3.17425 1.73066 3.73249 2.6941C3.85312 2.82925 4.82589 3.86031 6.42057 3.86031H13.9806C16.0432 3.82174 17.6576 5.89164 17.1183 7.88253L16.2481 11.3512C15.8078 13.1061 14.2366 14.3318 12.4274 14.3318ZM4.54795 4.80245C4.6571 5.30669 4.71359 5.82662 4.71359 6.35508V10.3927C4.71359 11.8407 5.89165 13.0187 7.33966 13.0187H12.4274C13.6335 13.0187 14.6809 12.2016 14.9745 11.0317L15.8448 7.56301C16.1652 6.38003 15.2058 5.15047 13.9806 5.17335H6.42054C5.69932 5.17335 5.07156 5.01785 4.54795 4.80245ZM7.0114 16.1372C7.0114 15.684 6.64398 15.3166 6.19076 15.3166C5.10185 15.3599 5.10281 16.9149 6.19076 16.9578C6.64398 16.9578 7.0114 16.5904 7.0114 16.1372ZM13.5438 16.1372C13.5438 15.684 13.1763 15.3166 12.7231 15.3166C11.6342 15.3599 11.6352 16.9149 12.7231 16.9578C13.1763 16.9578 13.5438 16.5904 13.5438 16.1372ZM14.6371 7.1429C14.6371 6.78031 14.3432 6.48638 13.9806 6.48638H6.68314C5.81208 6.52105 5.81273 7.76505 6.68314 7.79942H13.9806C14.3432 7.79942 14.6371 7.5055 14.6371 7.1429Z" fill="#46A358"/>
</g>
<defs>
<clipPath id="clip0_30_550">
<rect width="16.8099" height="16.8099" fill="white" transform="translate(0.41333 0.148682)"/>
</clipPath>
</defs>
</svg>
