<svg width="23" height="23" viewBox="0 0 23 23" fill="none" xmlns="http://www.w3.org/2000/svg">
<g id="shopping 1" clip-path="url(#clip0_70_341)">
<path id="Vector" d="M16.2365 18.942H9.45288C6.55685 18.942 4.20074 16.5859 4.20074 13.6899V8.30645C4.20074 5.61429 2.8589 3.12236 0.611378 1.64047C0.207751 1.37436 0.0963176 0.831462 0.362426 0.427834C0.628535 0.0241629 1.17139 -0.0873139 1.5751 0.178882C2.85811 1.02483 3.899 2.14056 4.64332 3.42515C4.80417 3.60534 6.10118 4.98009 8.22743 4.98009H18.3075C21.0576 4.92866 23.2101 7.68853 22.4911 10.3431L21.3307 14.968C20.7437 17.3078 18.6489 18.942 16.2365 18.942V18.942ZM5.7306 6.23627C5.87613 6.90859 5.95145 7.60183 5.95145 8.30645V13.6899C5.95145 15.6206 7.52219 17.1913 9.45288 17.1913H16.2365C17.8447 17.1913 19.2413 16.1019 19.6326 14.542L20.793 9.91702C21.2203 8.33971 19.9411 6.7003 18.3075 6.7308H8.22738C7.26576 6.7308 6.42874 6.52348 5.7306 6.23627V6.23627ZM9.0152 21.3493C9.0152 20.745 8.52531 20.2551 7.92101 20.2551C6.46914 20.3129 6.47041 22.3862 7.92101 22.4435C8.52531 22.4435 9.0152 21.9536 9.0152 21.3493ZM17.725 21.3493C17.725 20.745 17.2351 20.2551 16.6308 20.2551C15.1789 20.3129 15.1802 22.3862 16.6308 22.4435C17.2351 22.4435 17.725 21.9536 17.725 21.3493ZM19.1828 9.35688C19.1828 8.87342 18.7909 8.48152 18.3075 8.48152H8.57753C7.4161 8.52774 7.41698 10.1864 8.57753 10.2322H18.3075C18.7909 10.2322 19.1828 9.84034 19.1828 9.35688Z" fill="#727272"/>
</g>
<defs>
<clipPath id="clip0_70_341">
<rect width="22.4132" height="22.4132" fill="white" transform="translate(0.217773 0.03125)"/>
</clipPath>
</defs>
</svg>
