<svg width="18" height="17" viewBox="0 0 18 17" fill="none" xmlns="http://www.w3.org/2000/svg">
<g id="shopping 1" clip-path="url(#clip0_20_349)">
<path id="Vector" d="M12.4272 14.3318H7.33956C5.16753 14.3318 3.40045 12.5647 3.40045 10.3927V6.35508C3.40045 4.33596 2.39407 2.46701 0.708427 1.35559C0.405706 1.15601 0.322131 0.74884 0.521713 0.44612C0.721294 0.143366 1.12843 0.0597587 1.43122 0.259406C2.39348 0.893865 3.17414 1.73066 3.73238 2.6941C3.85302 2.82925 4.82578 3.86031 6.42046 3.86031H13.9805C16.0431 3.82174 17.6575 5.89164 17.1182 7.88253L16.2479 11.3512C15.8077 13.1061 14.2365 14.3318 12.4272 14.3318ZM4.54784 4.80245C4.65699 5.30669 4.71348 5.82662 4.71348 6.35508V10.3927C4.71348 11.8407 5.89154 13.0187 7.33956 13.0187H12.4272C13.6334 13.0187 14.6808 12.2016 14.9744 11.0317L15.8447 7.56301C16.1651 6.38003 15.2057 5.15047 13.9805 5.17335H6.42043C5.69921 5.17335 5.07145 5.01785 4.54784 4.80245ZM7.0113 16.1372C7.0113 15.684 6.64388 15.3166 6.19065 15.3166C5.10175 15.3599 5.1027 16.9149 6.19065 16.9578C6.64388 16.9578 7.0113 16.5904 7.0113 16.1372ZM13.5437 16.1372C13.5437 15.684 13.1762 15.3166 12.723 15.3166C11.6341 15.3599 11.6351 16.9149 12.723 16.9578C13.1762 16.9578 13.5437 16.5904 13.5437 16.1372ZM14.637 7.1429C14.637 6.78031 14.3431 6.48638 13.9805 6.48638H6.68304C5.81197 6.52105 5.81263 7.76505 6.68304 7.79942H13.9805C14.3431 7.79942 14.637 7.5055 14.637 7.1429Z" fill="#727272"/>
</g>
<defs>
<clipPath id="clip0_20_349">
<rect width="16.8099" height="16.8099" fill="white" transform="translate(0.413223 0.148682)"/>
</clipPath>
</defs>
</svg>
