<svg width="18" height="14" viewBox="0 0 18 14" fill="none" xmlns="http://www.w3.org/2000/svg">
<g id="Hide">
<path id="Stroke 1" d="M4.34984 11.7748C2.4915 10.5581 1.2915 8.72481 1.2915 7.11648C1.2915 4.38314 4.7415 1.03314 8.99984 1.03314C10.7415 1.03314 12.3582 1.59148 13.6582 2.45814" stroke="#727272" stroke-width="1.5" stroke-linecap="round" stroke-linejoin="round"/>
<path id="Stroke 3" d="M15.5414 4.17517C16.2839 5.11684 16.7164 6.1585 16.7164 7.11684C16.7164 9.85017 13.2581 13.2002 8.99977 13.2002C8.24144 13.2002 7.50061 13.0918 6.80811 12.9002" stroke="#727272" stroke-width="1.5" stroke-linecap="round" stroke-linejoin="round"/>
<path id="Stroke 5" d="M7.13804 8.97246C6.6422 8.48163 6.3647 7.81246 6.3672 7.11496C6.36387 5.6608 7.54054 4.47913 8.99554 4.47663C9.69554 4.47496 10.3672 4.75246 10.8622 5.24746" stroke="#727272" stroke-width="1.5" stroke-linecap="round" stroke-linejoin="round"/>
<path id="Stroke 7" d="M11.5912 7.58258C11.3962 8.65925 10.5537 9.50341 9.47705 9.70091" stroke="#727272" stroke-width="1.5" stroke-linecap="round" stroke-linejoin="round"/>
</g>
</svg>
