<svg width="24" height="24" viewBox="0 0 24 24" fill="none" xmlns="http://www.w3.org/2000/svg">
<path d="M19.3632 8.37501L19.3668 8.37021C19.6777 8.00819 19.8321 7.53748 19.796 7.06162C19.7599 6.58577 19.5362 6.14375 19.1742 5.83281C18.9949 5.67885 18.7871 5.5617 18.5626 5.48806C18.3381 5.41441 18.1012 5.38571 17.8656 5.4036C17.3897 5.43972 16.9477 5.66339 16.6368 6.02541L9.5028 14.1578L7.27319 11.927C7.10607 11.7599 6.90767 11.6273 6.68932 11.5369C6.47097 11.4464 6.23694 11.3999 6.0006 11.3999C5.76425 11.3999 5.53022 11.4464 5.31187 11.5369C5.09352 11.6273 4.89512 11.7599 4.72799 11.927C4.56087 12.0941 4.42831 12.2925 4.33786 12.5109C4.24742 12.7292 4.20087 12.9633 4.20087 13.1996C4.20087 13.436 4.24742 13.67 4.33786 13.8883C4.42831 14.1067 4.56087 14.3051 4.72799 14.4722L8.32679 18.0722C8.67359 18.4202 9.13679 18.6002 9.64679 18.599H9.66959C9.91709 18.5894 10.1599 18.5288 10.3829 18.421C10.6059 18.3132 10.8043 18.1606 10.9656 17.9726L19.3632 8.37501Z" fill="#108043"/>
</svg>
