<svg width="29" height="29" viewBox="0 0 29 29" fill="none" xmlns="http://www.w3.org/2000/svg">
<g id="User">
<g id="Vector">
<path fill-rule="evenodd" clip-rule="evenodd" d="M14.3333 4.96186C12.1717 4.96186 10.4194 6.70298 10.4194 8.85075C10.4194 10.9985 12.1717 12.7396 14.3333 12.7396C16.495 12.7396 18.2473 10.9985 18.2473 8.85075C18.2473 6.70298 16.495 4.96186 14.3333 4.96186ZM8.6129 8.85075C8.6129 5.7117 11.174 3.16699 14.3333 3.16699C17.4926 3.16699 20.0538 5.7117 20.0538 8.85075C20.0538 11.9898 17.4926 14.5345 14.3333 14.5345C11.174 14.5345 8.6129 11.9898 8.6129 8.85075Z" fill="#46A358"/>
<path fill-rule="evenodd" clip-rule="evenodd" d="M11.3772 18.7225C8.85285 18.7225 6.80645 20.7558 6.80645 23.264C6.80645 23.3957 6.83067 23.4887 6.85607 23.5428C6.87751 23.5885 6.8959 23.6015 6.91124 23.6098C7.61319 23.9893 9.58128 24.7055 14.3333 24.7055C19.0854 24.7055 21.0535 23.9893 21.7554 23.6098C21.7708 23.6015 21.7892 23.5885 21.8106 23.5428C21.836 23.4887 21.8602 23.3957 21.8602 23.264C21.8602 20.7558 19.8138 18.7225 17.2895 18.7225H11.3772ZM5 23.264C5 19.7645 7.85517 16.9277 11.3772 16.9277H17.2895C20.8115 16.9277 23.6667 19.7645 23.6667 23.264C23.6667 23.9064 23.4326 24.7464 22.6189 25.1863C21.5409 25.7692 19.2285 26.5003 14.3333 26.5003C9.43816 26.5003 7.12573 25.7692 6.0478 25.1863C5.23407 24.7464 5 23.9064 5 23.264Z" fill="#46A358"/>
</g>
</g>
</svg>
